<svg width="39" height="40" viewBox="0 0 39 40" fill="none" xmlns="http://www.w3.org/2000/svg">
<circle cx="19.5" cy="20" r="19.5" fill="#FCFDFC"/>
<path d="M19.5 6.5C16.5837 6.50344 13.7878 7.66347 11.7256 9.72563C9.66348 11.7878 8.50345 14.5837 8.50001 17.5C8.49652 19.8832 9.27499 22.2018 10.716 24.1C10.716 24.1 11.016 24.495 11.065 24.552L19.5 34.5L27.939 24.547C27.983 24.494 28.284 24.1 28.284 24.1L28.285 24.097C29.7253 22.1996 30.5034 19.8821 30.5 17.5C30.4966 14.5837 29.3365 11.7878 27.2744 9.72563C25.2122 7.66347 22.4163 6.50344 19.5 6.5V6.5ZM19.5 21.5C18.7089 21.5 17.9355 21.2654 17.2777 20.8259C16.6199 20.3864 16.1072 19.7616 15.8045 19.0307C15.5017 18.2998 15.4225 17.4956 15.5769 16.7196C15.7312 15.9437 16.1122 15.231 16.6716 14.6716C17.231 14.1122 17.9437 13.7312 18.7197 13.5769C19.4956 13.4225 20.2998 13.5017 21.0307 13.8045C21.7616 14.1072 22.3864 14.6199 22.8259 15.2777C23.2654 15.9355 23.5 16.7089 23.5 17.5C23.4987 18.5605 23.0768 19.5771 22.327 20.327C21.5771 21.0768 20.5605 21.4987 19.5 21.5V21.5Z" fill="#E94436"/>
</svg>
