<svg width="569" height="487" viewBox="0 0 569 487" fill="none" xmlns="http://www.w3.org/2000/svg">
<path fill-rule="evenodd" clip-rule="evenodd" d="M263.548 4.6809C305.368 44.0312 265.421 122.454 292.72 172.972C301.612 189.427 328.002 161.964 346.193 157.617C406.925 143.104 529.938 54.5007 527.403 116.891C524.366 191.598 329.992 167.267 342.807 240.93C356.701 320.791 522.237 265.355 565.191 334.099C591.359 375.98 458.71 334.794 422.307 368.163C394.464 393.686 437.221 457.214 406.665 479.416C377.527 500.587 335.487 469.292 302.264 455.385C276.295 444.515 259.169 419.415 233.862 407.083C215.271 398.024 194.535 390.371 174.008 392.886C120.3 399.468 66.8356 457.358 18.2686 433.501C-16.7572 416.296 23.7438 356.33 20.4304 317.447C17.6993 285.398 -0.384392 256.047 0.406476 223.891C1.21274 191.109 -7.11778 135.872 25.0525 129.518C86.883 117.305 143.331 198.515 204.558 183.566C236.256 175.827 190.689 117.569 200.908 86.5817C211.764 53.6606 238.302 -19.0741 263.548 4.6809Z" fill="#4483F3"/>
</svg>
