<svg width="41" height="41" viewBox="0 0 41 41" fill="none" xmlns="http://www.w3.org/2000/svg">
<circle cx="20" cy="20.5" r="19.5" fill="#FCFDFC"/>
<path d="M28.8333 10.3333L10.1667 10.3333C9.10579 10.3333 8.08837 10.7547 7.33823 11.5048C6.58808 12.255 6.16666 13.2724 6.16666 14.3333L6.16666 27.6666C6.16666 28.7274 6.58808 29.7449 7.33823 30.495C8.08837 31.2452 9.10579 31.6666 10.1667 31.6666L28.8333 31.6666C29.8942 31.6666 30.9116 31.2452 31.6617 30.495C32.4119 29.7449 32.8333 28.7274 32.8333 27.6666L32.8333 14.3333C32.8333 13.2724 32.4119 12.255 31.6617 11.5048C30.9116 10.7547 29.8942 10.3333 28.8333 10.3333ZM28.8333 12.9999L20.1667 18.9599C19.964 19.0769 19.734 19.1386 19.5 19.1386C19.2659 19.1386 19.036 19.0769 18.8333 18.9599L10.1667 12.9999L28.8333 12.9999Z" fill="#4285F4"/>
</svg>
