<svg width="617" height="656" viewBox="0 0 617 656" fill="none" xmlns="http://www.w3.org/2000/svg">
<path fill-rule="evenodd" clip-rule="evenodd" d="M322.717 0.4653C391.768 -4.61656 457.827 32.6181 509.756 78.4146C558.51 121.411 582.701 183.068 600.625 245.554C617.965 306.001 622.007 367.524 610.416 429.331C597.309 499.23 587.012 578.647 530.152 621.362C473.101 664.222 392.827 658.742 322.717 645.465C261.351 633.844 216.086 588.873 165.46 552.298C114.662 515.598 54.094 488.461 27.1091 431.901C-1.82325 371.258 -9.99646 298.279 14.3982 235.673C38.2188 174.541 102.501 144.342 154.664 104.548C208.366 63.5801 255.355 5.4228 322.717 0.4653Z" fill="#0C9C5B"/>
</svg>
