<svg width="39" height="39" viewBox="0 0 39 39" fill="none" xmlns="http://www.w3.org/2000/svg">
<circle cx="19.5" cy="19.5" r="19.5" fill="#FCFDFC"/>
<path d="M23.33 25.48L25.57 23.24C25.8717 22.9421 26.2534 22.7381 26.6688 22.6529C27.0842 22.5677 27.5153 22.6049 27.91 22.76L30.64 23.85C31.0388 24.0119 31.3808 24.2882 31.6228 24.6441C31.8648 25.0001 31.996 25.4197 32 25.85L32 30.85C31.9977 31.1428 31.9361 31.4321 31.819 31.7005C31.702 31.9688 31.5318 32.2107 31.3188 32.4116C31.1058 32.6125 30.8543 32.7682 30.5796 32.8693C30.3048 32.9704 30.0124 33.0149 29.72 33C10.59 31.81 6.72998 15.61 5.99998 9.41004C5.96609 9.10558 5.99706 8.79739 6.09083 8.50575C6.1846 8.21411 6.33906 7.94563 6.54405 7.71798C6.74903 7.49032 6.9999 7.30865 7.28014 7.1849C7.56038 7.06116 7.86364 6.99816 8.16998 7.00004L13 7.00004C13.431 7.00132 13.8518 7.13151 14.2082 7.37387C14.5646 7.61623 14.8403 7.95968 15 8.36004L16.09 11.09C16.2502 11.4831 16.2911 11.9147 16.2075 12.3309C16.1239 12.747 15.9196 13.1293 15.62 13.43L13.38 15.67C13.38 15.67 14.67 24.4 23.33 25.48Z" fill="#0C9C5B"/>
</svg>
