<svg width="626" height="666" viewBox="0 0 626 666" fill="none" xmlns="http://www.w3.org/2000/svg">
<path fill-rule="evenodd" clip-rule="evenodd" d="M284.514 2.62533C333.337 12.8706 359.034 67.3503 402.951 91.0139C444.462 113.381 501.678 103.773 534.701 137.433C567.67 171.039 563.856 225.099 578.417 269.869C594.29 318.672 628.372 363.432 624.856 414.631C621.254 467.084 589.928 513.313 558.79 555.678C526.97 598.969 494.062 651.016 441.837 663.635C388.434 676.538 339.447 622.829 284.514 621.948C230.783 621.086 176.401 685.042 129.603 658.627C81.3741 631.404 100.051 553.349 75.2535 503.83C56.1592 465.699 8.34181 443.672 0.932269 401.676C-6.48125 359.657 32.659 322.733 35.7939 280.181C39.6118 228.359 0.887386 174.782 21.1724 126.942C40.8556 80.5209 93.853 57.2443 139.449 35.7196C184.87 14.2779 235.358 -7.68986 284.514 2.62533Z" fill="#EB4434"/>
</svg>
