<svg width="692" height="671" viewBox="0 0 692 671" fill="none" xmlns="http://www.w3.org/2000/svg">
<path fill-rule="evenodd" clip-rule="evenodd" d="M339.544 0.854203C387.999 3.46258 435.568 12.6296 479.694 32.8153C524.283 53.2125 562.389 83.7771 596.919 118.59C633.937 155.913 678.128 192.645 689.191 244.035C700.246 295.391 668.229 344.976 656.684 396.224C645.108 447.609 653.73 507.025 620.703 548.056C587.676 589.085 528.69 595.388 480.067 615.637C433.639 634.972 389.447 658.887 339.544 665.144C286.276 671.823 229.224 676.654 180.961 653.142C132.73 629.645 104.121 580.016 73.8629 535.713C45.0501 493.526 19.3632 449.32 7.77413 399.564C-3.83986 349.701 -0.980163 298.498 6.82593 247.899C14.9936 194.955 20.9859 138.315 54.5222 96.5418C88.0411 54.7903 141.177 34.365 191.935 17.3246C239.465 1.36784 289.48 -1.84087 339.544 0.854203Z" fill="#FBBB04"/>
</svg>
